# xmcd
#
# Track frame offsets: 
#        150
#        10430
#        21952
#        34788
#        49207
#        58987
#        75965
#        90001
#        100002
#        112653
#        128370
#        137379
#        154666
#
# Disc length: 2202 seconds
#
# Revision: 0
# Processed by: cddbd v1.5.2PL0 Copyright (c) Steve Scherf et al.
# Submitted via: ExactAudioCopy v1.0b3
#
DISCID=8908980d
DTITLE=Johnny Trouble - That's Love
DYEAR=2014
DGENRE=Country
TTITLE0=Big Moon
TTITLE1=Still On My Mind
TTITLE2=Blue Guitar
TTITLE3=Big Black Train
TTITLE4=Troubles Of My Own
TTITLE5=Long Distance Romance
TTITLE6=Days Like This
TTITLE7=It’s Gotta Be That Way
TTITLE8=Miller’s Cave
TTITLE9=Yesterday Cowboy
TTITLE10=House Rent Blues
TTITLE11=That’s Love
TTITLE12=Me And My New Baby
EXTD=
EXTT0=
EXTT1=
EXTT2=
EXTT3=
EXTT4=
EXTT5=
EXTT6=
EXTT7=
EXTT8=
EXTT9=
EXTT10=
EXTT11=
EXTT12=
PLAYORDER=
